<svg width="131" height="131" viewBox="0 0 131 131" fill="none" xmlns="http://www.w3.org/2000/svg">
<path d="M8.13619 73.4484C3.64275 68.9551 3.64275 61.6697 8.13619 57.1762L57.1766 8.13595C61.6699 3.64251 68.9553 3.64251 73.4486 8.13595L122.489 57.1762C126.982 61.6697 126.982 68.9551 122.489 73.4484L73.4486 122.489C68.9553 126.982 61.6699 126.982 57.1766 122.489L8.13619 73.4484Z" fill="#FF6F6F"/>
<path d="M59.8757 74.1855C58.5011 74.1855 57.3736 73.9708 56.493 73.5413C55.6123 73.0902 54.9573 72.4996 54.5277 71.7694C54.0982 71.039 53.8833 70.2336 53.8833 69.353C53.8833 67.8711 54.4633 66.6682 55.6232 65.7447C56.783 64.821 58.5227 64.3592 60.8423 64.3592H64.9017V63.9728C64.9017 62.8773 64.5902 62.072 63.9673 61.5564C63.3445 61.0409 62.5714 60.7831 61.6477 60.7831C60.8101 60.7831 60.0799 60.9871 59.4571 61.3953C58.8342 61.782 58.4476 62.3617 58.2971 63.135H54.2699C54.3775 61.9753 54.7639 60.9658 55.4299 60.1067C56.1172 59.2474 56.9978 58.5923 58.0716 58.1415C59.1455 57.6688 60.3484 57.4326 61.6799 57.4326C63.9567 57.4326 65.7501 58.0017 67.0603 59.1401C68.3705 60.2785 69.0256 61.8893 69.0256 63.9728V73.7991H65.5137L65.1273 71.2216C64.6546 72.0807 63.9889 72.7895 63.1298 73.348C62.2921 73.9064 61.2074 74.1855 59.8757 74.1855ZM60.8101 70.9638C61.9914 70.9638 62.9043 70.5772 63.5485 69.8041C64.2144 69.0308 64.6333 68.0751 64.8051 66.9367H61.2934C60.1979 66.9367 59.414 67.1407 58.9415 67.5489C58.4689 67.9355 58.2327 68.4186 58.2327 68.9986C58.2327 69.6215 58.4689 70.1048 58.9415 70.4483C59.414 70.7921 60.0368 70.9638 60.8101 70.9638Z" fill="white"/>
<path d="M75.1837 55.3383C74.4321 55.3383 73.8093 55.1128 73.3151 54.6617C72.8427 54.2108 72.6064 53.6415 72.6064 52.9542C72.6064 52.2669 72.8427 51.7085 73.3151 51.2789C73.8093 50.8278 74.4321 50.6023 75.1837 50.6023C75.9354 50.6023 76.5476 50.8278 77.0203 51.2789C77.5142 51.7085 77.7611 52.2669 77.7611 52.9542C77.7611 53.6415 77.5142 54.2108 77.0203 54.6617C76.5476 55.1128 75.9354 55.3383 75.1837 55.3383ZM73.122 73.7989V57.8191H77.2456V73.7989H73.122Z" fill="white"/>
</svg>
