<svg width="452" height="452" viewBox="0 0 452 452" fill="none" xmlns="http://www.w3.org/2000/svg">
<path d="M194.575 13.4351L13.1066 196.883C-3.52081 213.692 -3.37374 240.798 13.4351 257.425L196.883 438.893C213.692 455.521 240.798 455.374 257.425 438.565L438.893 255.117C455.521 238.308 455.374 211.203 438.565 194.575L255.117 13.1067C238.308 -3.52076 211.202 -3.37373 194.575 13.4351Z" fill="#F66161"/>
<path d="M203.732 253.17C198.551 253.198 194.296 252.483 190.969 251.026C187.642 249.494 185.161 247.479 183.529 244.98C181.896 242.48 181.071 239.718 181.055 236.694C181.027 231.604 183.191 227.461 187.545 224.265C191.9 221.07 198.449 219.448 207.192 219.4L222.492 219.317L222.485 217.989C222.464 214.227 221.276 211.467 218.918 209.709C216.561 207.951 213.642 207.082 210.161 207.101C207.003 207.118 204.255 207.834 201.915 209.248C199.574 210.589 198.128 212.589 197.575 215.247L182.397 215.33C182.779 211.344 184.218 207.869 186.712 204.904C189.286 201.94 192.593 199.671 196.632 198.1C200.672 196.455 205.2 195.62 210.22 195.592C218.801 195.546 225.572 197.464 230.531 201.347C235.491 205.23 237.99 210.749 238.029 217.905L238.212 251.655L224.976 251.727L223.47 242.882C221.705 245.843 219.209 248.29 215.981 250.227C212.834 252.162 208.751 253.143 203.732 253.17ZM207.193 242.085C211.646 242.061 215.079 240.714 217.493 238.046C219.989 235.376 221.55 232.085 222.176 228.172L208.94 228.244C204.811 228.266 201.86 228.982 200.087 230.394C198.312 231.732 197.431 233.396 197.442 235.388C197.453 237.527 198.353 239.182 200.141 240.353C201.928 241.524 204.279 242.101 207.193 242.085ZM261.079 188.123C258.246 188.138 255.894 187.377 254.024 185.837C252.234 184.298 251.333 182.348 251.32 179.988C251.307 177.626 252.187 175.704 253.961 174.219C255.814 172.659 258.158 171.873 260.991 171.857C263.825 171.842 266.136 172.603 267.925 174.143C269.796 175.608 270.737 177.521 270.749 179.882C270.762 182.242 269.842 184.203 267.988 185.762C266.216 187.321 263.913 188.107 261.079 188.123ZM253.651 251.571L253.353 196.686L268.897 196.601L269.195 251.487L253.651 251.571Z" fill="white"/>
</svg>
