<svg width="131" height="131" viewBox="0 0 131 131" fill="none" xmlns="http://www.w3.org/2000/svg">
<path d="M8.13619 73.4484C3.64275 68.9551 3.64275 61.6697 8.13619 57.1762L57.1766 8.13595C61.6699 3.64251 68.9553 3.64251 73.4488 8.13595L122.489 57.1762C126.982 61.6697 126.982 68.9551 122.489 73.4484L73.4488 122.489C68.9553 126.982 61.6699 126.982 57.1766 122.489L8.13619 73.4484Z" fill="#51C0C0"/>
<path d="M40.4089 74.7615C38.7946 74.7615 37.3715 74.4141 36.1395 73.7194C34.9072 73.0247 33.9302 72.0565 33.208 70.8145C32.507 69.5725 32.1565 68.1515 32.1565 66.5515C32.1565 64.9516 32.507 63.5306 33.208 62.2886C33.9302 61.0466 34.9072 60.0782 36.1395 59.3837C37.3715 58.689 38.7946 58.3416 40.4089 58.3416C42.4269 58.3416 44.1263 58.868 45.507 59.9204C46.8877 60.9519 47.7694 62.3835 48.1517 64.2149H43.8503C43.6378 63.457 43.213 62.8675 42.5756 62.4467C41.9597 62.0045 41.2269 61.7835 40.3772 61.7835C39.2514 61.7835 38.2954 62.2046 37.5095 63.0464C36.7236 63.8885 36.3306 65.057 36.3306 66.5515C36.3306 68.0461 36.7236 69.2146 37.5095 70.0567C38.2954 70.8985 39.2514 71.3196 40.3772 71.3196C41.2269 71.3196 41.9597 71.1091 42.5756 70.688C43.213 70.2672 43.6378 69.6672 43.8503 68.8882H48.1517C47.7694 70.6564 46.8877 72.0774 45.507 73.1512C44.1263 74.2247 42.4269 74.7615 40.4089 74.7615Z" fill="white"/>
<path d="M53.7473 81.3293L57.4115 73.3404H56.4558L50.3062 58.7205H54.735L59.1641 69.7406L63.784 58.7205H68.1175L58.0807 81.3293H53.7473Z" fill="white"/>
<path d="M80.1512 74.7615C78.9619 74.7615 77.921 74.5403 77.0289 74.0984C76.1367 73.6562 75.4143 73.0353 74.862 72.2352L74.4159 74.3825H70.7837V51.6472H74.862V60.9625C75.3719 60.2678 76.0411 59.6574 76.8695 59.1309C77.7192 58.6047 78.8132 58.3415 80.1512 58.3415C81.6382 58.3415 82.966 58.6994 84.1342 59.4153C85.3024 60.1309 86.2266 61.1099 86.9063 62.3517C87.586 63.5937 87.9258 65.0043 87.9258 66.5831C87.9258 68.1619 87.586 69.5724 86.9063 70.8145C86.2266 72.0354 85.3024 73.0038 84.1342 73.7194C82.966 74.4141 81.6382 74.7615 80.1512 74.7615ZM79.2911 71.2249C80.5869 71.2249 81.6595 70.7934 82.5092 69.9301C83.359 69.0671 83.7837 67.9514 83.7837 66.5831C83.7837 65.2148 83.359 64.0886 82.5092 63.2045C81.6595 62.3201 80.5869 61.8782 79.2911 61.8782C77.9739 61.8782 76.8906 62.3201 76.0411 63.2045C75.2125 64.0675 74.7985 65.1832 74.7985 66.5515C74.7985 67.9198 75.2125 69.046 76.0411 69.9301C76.8906 70.7934 77.9739 71.2249 79.2911 71.2249Z" fill="white"/>
<path d="M91.5693 74.3825V58.7206H95.2018L95.5841 61.6572C96.1575 60.6466 96.933 59.8468 97.9101 59.2572C98.9085 58.6468 100.077 58.3416 101.415 58.3416V62.6045H100.268C99.3757 62.6045 98.5793 62.7412 97.8783 63.0149C97.1773 63.2885 96.625 63.7623 96.2213 64.4359C95.839 65.1094 95.6479 66.0463 95.6479 67.2463V74.3825H91.5693Z" fill="white"/>
</svg>
