<svg width="131" height="131" viewBox="0 0 131 131" fill="none" xmlns="http://www.w3.org/2000/svg">
<path d="M8.13619 73.4484C3.64275 68.9549 3.64275 61.6697 8.13619 57.1762L57.1766 8.13594C61.6699 3.6425 68.9553 3.64252 73.4486 8.13594L122.489 57.1762C126.982 61.6697 126.982 68.9549 122.489 73.4484L73.4486 122.489C68.9553 126.982 61.6699 126.982 57.1766 122.489L8.13619 73.4484Z" fill="#E981A0"/>
<path d="M38.2615 75.0728C36.773 75.0728 35.4441 74.7195 34.2746 74.0128C33.1052 73.3061 32.1802 72.3395 31.4999 71.1131C30.8195 69.8868 30.4792 68.4941 30.4792 66.9351C30.4792 65.3763 30.8195 63.9941 31.4999 62.7884C32.1802 61.562 33.1052 60.6059 34.2746 59.9199C35.4441 59.2132 36.773 58.8598 38.2615 58.8598C39.4521 58.8598 40.494 59.0782 41.3871 59.5147C42.2799 59.9512 43.0029 60.5643 43.5557 61.3541V52.25H47.6381V74.6986H44.0022L43.5557 72.4849C43.0454 73.1709 42.365 73.7737 41.5147 74.2934C40.6854 74.8131 39.601 75.0728 38.2615 75.0728ZM39.1225 71.5808C40.4407 71.5808 41.5147 71.1547 42.3437 70.3024C43.1943 69.4294 43.6195 68.3173 43.6195 66.9664C43.6195 65.6153 43.1943 64.5135 42.3437 63.6614C41.5147 62.7884 40.4407 62.3519 39.1225 62.3519C37.8256 62.3519 36.7516 62.7779 35.9013 63.6303C35.0507 64.4824 34.6255 65.584 34.6255 66.9351C34.6255 68.2862 35.0507 69.3982 35.9013 70.2712C36.7516 71.1442 37.8256 71.5808 39.1225 71.5808Z" fill="white"/>
<path d="M58.3336 75.0728C56.9302 75.0728 55.6969 74.8547 54.6338 74.4182C53.5707 73.9608 52.7202 73.3373 52.0823 72.5474C51.4444 71.7576 51.0617 70.843 50.9341 69.8036H55.0483C55.1759 70.4065 55.5162 70.9261 56.069 71.3626C56.643 71.7782 57.3767 71.9861 58.2698 71.9861C59.1628 71.9861 59.8111 71.8094 60.2152 71.456C60.6404 71.1027 60.8531 70.6973 60.8531 70.2401C60.8531 69.575 60.5555 69.1281 59.9601 68.8995C59.3646 68.65 58.5354 68.4109 57.4723 68.1824C56.792 68.0369 56.101 67.8601 55.3993 67.6522C54.6976 67.4445 54.0491 67.1846 53.4536 66.8728C52.8795 66.5402 52.4119 66.1246 52.0503 65.6256C51.6889 65.1061 51.5082 64.4722 51.5082 63.7237C51.5082 62.3519 52.0609 61.1983 53.1667 60.263C54.2935 59.3275 55.8669 58.8599 57.887 58.8599C59.758 58.8599 61.2465 59.2859 62.3522 60.1382C63.4791 60.9904 64.1488 62.1649 64.3615 63.6614H60.5024C60.2683 62.5182 59.386 61.9465 57.855 61.9465C57.0896 61.9465 56.4944 62.0922 56.069 62.383C55.6651 62.6741 55.4631 63.0379 55.4631 63.4744C55.4631 63.9316 55.7713 64.2954 56.3879 64.5656C57.0047 64.8357 57.8232 65.0852 58.8439 65.3138C59.9494 65.5633 60.9593 65.8439 61.8737 66.1557C62.8092 66.4468 63.5535 66.8935 64.1063 67.4964C64.6591 68.0785 64.9356 68.9202 64.9356 70.0218C64.9569 70.9779 64.7017 71.8407 64.1701 72.6097C63.6385 73.3788 62.873 73.9817 61.8737 74.4182C60.8744 74.8547 59.6942 75.0728 58.3336 75.0728Z" fill="white"/>
<path d="M75.2497 70.0842C74.4843 70.0842 73.7719 70.0011 73.1129 69.8348L71.9327 70.9884C72.2944 71.1754 72.7833 71.3313 73.3999 71.456C74.0167 71.5808 75.0159 71.7055 76.3979 71.8303C78.503 72.0173 80.0339 72.5058 80.9907 73.2957C81.9475 74.0855 82.4258 75.1767 82.4258 76.5693C82.4258 77.4839 82.1707 78.3465 81.6604 79.1572C81.1501 79.9887 80.3635 80.6538 79.3002 81.1528C78.2371 81.6722 76.8765 81.9322 75.218 81.9322C72.964 81.9322 71.1462 81.5163 69.7639 80.6849C68.3819 79.8744 67.6909 78.648 67.6909 77.0059C67.6909 75.6132 68.3819 74.4077 69.7639 73.3893C69.3388 73.2021 68.9667 73.0046 68.6477 72.7967C68.3501 72.589 68.0843 72.3706 67.8503 72.142V71.4249L70.6252 68.5564C69.3919 67.4964 68.7753 66.135 68.7753 64.4722C68.7753 63.4328 69.0305 62.4871 69.5408 61.6348C70.0724 60.7827 70.8166 60.1071 71.7734 59.6081C72.7302 59.1094 73.8891 58.8599 75.2497 58.8599C76.1428 58.8599 76.972 58.9846 77.7375 59.2341H83.7336V61.6659L81.0225 61.8531C81.4479 62.643 81.6604 63.516 81.6604 64.4722C81.6604 65.5113 81.4052 66.457 80.8949 67.3093C80.3846 68.1615 79.6405 68.837 78.6623 69.336C77.7057 69.8348 76.568 70.0842 75.2497 70.0842ZM75.2497 67.0287C76.079 67.0287 76.7593 66.8106 77.291 66.3741C77.8437 65.9376 78.1202 65.3138 78.1202 64.5033C78.1202 63.6926 77.8437 63.069 77.291 62.6325C76.7593 62.196 76.079 61.9777 75.2497 61.9777C74.378 61.9777 73.6764 62.196 73.1447 62.6325C72.6133 63.069 72.3475 63.6926 72.3475 64.5033C72.3475 65.3138 72.6133 65.9376 73.1447 66.3741C73.6764 66.8106 74.378 67.0287 75.2497 67.0287ZM71.4224 76.6005C71.4224 77.3696 71.784 77.9413 72.5068 78.3154C73.2512 78.7103 74.1547 78.9078 75.218 78.9078C76.2386 78.9078 77.0678 78.6998 77.7057 78.2842C78.3436 77.8893 78.6623 77.349 78.6623 76.663C78.6623 76.1017 78.4498 75.6341 78.0247 75.2598C77.6206 74.8858 76.802 74.657 75.5687 74.5741C74.697 74.5116 73.8891 74.4182 73.1447 74.2934C72.5282 74.6259 72.0817 74.9897 71.8052 75.3846C71.55 75.7795 71.4224 76.1849 71.4224 76.6005Z" fill="white"/>
<path d="M86.7104 74.6986V59.2341H90.3146L90.6335 61.8531C91.1225 60.9385 91.8242 60.211 92.7386 59.6706C93.6741 59.13 94.7691 58.8599 96.0236 58.8599C97.9797 58.8599 99.4999 59.4627 100.584 60.6684C101.669 61.8738 102.211 63.6407 102.211 65.9687V74.6986H98.1286V66.3427C98.1286 65.0125 97.8521 63.9941 97.2993 63.2872C96.7466 62.5805 95.8853 62.2272 94.716 62.2272C93.5678 62.2272 92.6214 62.6221 91.8773 63.4119C91.1545 64.2018 90.7929 65.3036 90.7929 66.717V74.6986H86.7104Z" fill="white"/>
</svg>
