<svg width="131" height="131" viewBox="0 0 131 131" fill="none" xmlns="http://www.w3.org/2000/svg">
<path d="M8.13619 73.4484C3.64275 68.9551 3.64275 61.6697 8.13619 57.1762L57.1766 8.13595C61.6699 3.64251 68.9553 3.64251 73.4488 8.13595L122.489 57.1762C126.982 61.6697 126.982 68.9551 122.489 73.4484L73.4488 122.489C68.9553 126.982 61.6699 126.982 57.1766 122.489L8.13619 73.4484Z" fill="#F9A857"/>
<path d="M30.0464 75.1053V51.9089H34.1702V61.5741C34.7071 60.6935 35.4266 60.0062 36.3288 59.5122C37.2523 58.9966 38.3047 58.7389 39.486 58.7389C41.4621 58.7389 42.987 59.3617 44.0609 60.6075C45.1562 61.8532 45.704 63.6789 45.704 66.0844V75.1053H41.6124V66.471C41.6124 65.0964 41.3333 64.044 40.7748 63.3138C40.2377 62.5834 39.3787 62.2183 38.1974 62.2183C37.0374 62.2183 36.071 62.6265 35.2977 63.4427C34.546 64.2589 34.1702 65.3971 34.1702 66.8577V75.1053H30.0464Z" fill="white"/>
<path d="M55.1565 75.4916C53.7819 75.4916 52.6544 75.277 51.7737 74.8474C50.8931 74.3964 50.238 73.8057 49.8085 73.0755C49.3789 72.3451 49.1641 71.5398 49.1641 70.6592C49.1641 69.1772 49.744 67.9744 50.9038 67.0509C52.0637 66.1274 53.8034 65.6654 56.1231 65.6654H60.1825V65.2789C60.1825 64.1834 59.871 63.3781 59.2481 62.8626C58.6252 62.3471 57.8519 62.0893 56.9284 62.0893C56.0909 62.0893 55.3605 62.2935 54.7376 62.7015C54.1147 63.0881 53.7283 63.6681 53.5779 64.4412H49.5507C49.658 63.2815 50.0447 62.272 50.7104 61.4129C51.3978 60.5536 52.2784 59.8985 53.3523 59.4476C54.4263 58.975 55.6291 58.7388 56.9606 58.7388C59.2374 58.7388 61.0307 59.3079 62.3409 60.4463C63.651 61.5847 64.3061 63.1955 64.3061 65.2789V75.1052H60.7945L60.4078 72.5278C59.9354 73.3868 59.2696 74.0957 58.4104 74.6541C57.5728 75.2125 56.4882 75.4916 55.1565 75.4916ZM56.0909 72.27C57.2722 72.27 58.185 71.8834 58.8292 71.1103C59.4952 70.337 59.9138 69.3812 60.0858 68.2428H56.574C55.4787 68.2428 54.6947 68.4468 54.2223 68.855C53.7497 69.2417 53.5134 69.7248 53.5134 70.3047C53.5134 70.9276 53.7497 71.4109 54.2223 71.7545C54.6947 72.0982 55.3176 72.27 56.0909 72.27Z" fill="white"/>
<path d="M76.0702 75.4916C74.438 75.4916 72.999 75.1374 71.7532 74.4286C70.5075 73.7197 69.5193 72.7318 68.7891 71.4647C68.0805 70.1974 67.7261 68.7477 67.7261 67.1153C67.7261 65.4829 68.0805 64.0332 68.7891 62.7659C69.5193 61.4987 70.5075 60.5107 71.7532 59.8018C72.999 59.0932 74.438 58.7388 76.0702 58.7388C78.1108 58.7388 79.8289 59.2756 81.2251 60.3496C82.621 61.402 83.5125 62.8626 83.899 64.7312H79.5498C79.3349 63.9579 78.9054 63.3566 78.261 62.927C77.6381 62.476 76.8973 62.2504 76.038 62.2504C74.8998 62.2504 73.9332 62.6799 73.1385 63.5392C72.3439 64.3983 71.9466 65.5903 71.9466 67.1153C71.9466 68.6401 72.3439 69.8323 73.1385 70.6914C73.9332 71.5505 74.8998 71.98 76.038 71.98C76.8973 71.98 77.6381 71.7654 78.261 71.3358C78.9054 70.9061 79.3349 70.2941 79.5498 69.4994H83.899C83.5125 71.3036 82.621 72.7533 81.2251 73.8486C79.8289 74.9441 78.1108 75.4916 76.0702 75.4916Z" fill="white"/>
<path d="M87.5593 75.1053V51.9089H91.6832V65.6013L97.3534 59.1255H102.25L95.7101 66.4066L103.314 75.1053H98.1587L91.6832 67.0832V75.1053H87.5593Z" fill="white"/>
</svg>
